<?xml version="1.0" encoding="UTF-8" standalone="no"?>
<!DOCTYPE svg PUBLIC "-//W3C//DTD SVG 1.1//EN"
 "http://www.w3.org/Graphics/SVG/1.1/DTD/svg11.dtd">
<!-- Generated by graphviz version 2.43.0 (0)
 -->
<!-- Title: %3 Pages: 1 -->
<svg width="537pt" height="404pt"
 viewBox="0.00 0.00 537.43 404.00" xmlns="http://www.w3.org/2000/svg" xmlns:xlink="http://www.w3.org/1999/xlink">
<g id="graph0" class="graph" transform="scale(1 1) rotate(0) translate(4 400)">
<title>%3</title>
<polygon fill="white" stroke="transparent" points="-4,4 -4,-400 533.43,-400 533.43,4 -4,4"/>
<!-- [root] circle3_ddisk.puppy_linux (expand) -->
<g id="node1" class="node">
<title>[root] circle3_ddisk.puppy_linux (expand)</title>
<polygon fill="none" stroke="black" points="364.72,-252 164.72,-252 164.72,-216 364.72,-216 364.72,-252"/>
<text text-anchor="middle" x="264.72" y="-230.3" font-family="Times,serif" font-size="14.00">circle3_ddisk.puppy_linux</text>
</g>
<!-- [root] circle3_vm.basic (expand) -->
<g id="node2" class="node">
<title>[root] circle3_vm.basic (expand)</title>
<polygon fill="none" stroke="black" points="331.72,-180 197.72,-180 197.72,-144 331.72,-144 331.72,-180"/>
<text text-anchor="middle" x="264.72" y="-158.3" font-family="Times,serif" font-size="14.00">circle3_vm.basic</text>
</g>
<!-- [root] circle3_ddisk.puppy_linux (expand)&#45;&gt;[root] circle3_vm.basic (expand) -->
<g id="edge1" class="edge">
<title>[root] circle3_ddisk.puppy_linux (expand)&#45;&gt;[root] circle3_vm.basic (expand)</title>
<path fill="none" stroke="black" d="M264.72,-215.7C264.72,-207.98 264.72,-198.71 264.72,-190.11"/>
<polygon fill="black" stroke="black" points="268.22,-190.1 264.72,-180.1 261.22,-190.1 268.22,-190.1"/>
</g>
<!-- [root] data.circle3_lease_byname.labor_lease (expand) -->
<g id="node3" class="node">
<title>[root] data.circle3_lease_byname.labor_lease (expand)</title>
<polygon fill="none" stroke="black" points="410.72,-108 118.72,-108 118.72,-72 410.72,-72 410.72,-108"/>
<text text-anchor="middle" x="264.72" y="-86.3" font-family="Times,serif" font-size="14.00">data.circle3_lease_byname.labor_lease</text>
</g>
<!-- [root] circle3_vm.basic (expand)&#45;&gt;[root] data.circle3_lease_byname.labor_lease (expand) -->
<g id="edge2" class="edge">
<title>[root] circle3_vm.basic (expand)&#45;&gt;[root] data.circle3_lease_byname.labor_lease (expand)</title>
<path fill="none" stroke="black" d="M264.72,-143.7C264.72,-135.98 264.72,-126.71 264.72,-118.11"/>
<polygon fill="black" stroke="black" points="268.22,-118.1 264.72,-108.1 261.22,-118.1 268.22,-118.1"/>
</g>
<!-- [root] provider[&quot;hashicorp.com/edu/circle3&quot;] -->
<g id="node4" class="node">
<title>[root] provider[&quot;hashicorp.com/edu/circle3&quot;]</title>
<polygon fill="none" stroke="black" points="264.72,-36 -0.22,-18 264.72,0 529.65,-18 264.72,-36"/>
<text text-anchor="middle" x="264.72" y="-14.3" font-family="Times,serif" font-size="14.00">provider[&quot;hashicorp.com/edu/circle3&quot;]</text>
</g>
<!-- [root] data.circle3_lease_byname.labor_lease (expand)&#45;&gt;[root] provider[&quot;hashicorp.com/edu/circle3&quot;] -->
<g id="edge3" class="edge">
<title>[root] data.circle3_lease_byname.labor_lease (expand)&#45;&gt;[root] provider[&quot;hashicorp.com/edu/circle3&quot;]</title>
<path fill="none" stroke="black" d="M264.72,-71.7C264.72,-63.98 264.72,-54.71 264.72,-46.11"/>
<polygon fill="black" stroke="black" points="268.22,-46.1 264.72,-36.1 261.22,-46.1 268.22,-46.1"/>
</g>
<!-- [root] provider[&quot;hashicorp.com/edu/circle3&quot;] (close) -->
<g id="node5" class="node">
<title>[root] provider[&quot;hashicorp.com/edu/circle3&quot;] (close)</title>
<ellipse fill="none" stroke="black" cx="264.72" cy="-306" rx="248.86" ry="18"/>
<text text-anchor="middle" x="264.72" y="-302.3" font-family="Times,serif" font-size="14.00">[root] provider[&quot;hashicorp.com/edu/circle3&quot;] (close)</text>
</g>
<!-- [root] provider[&quot;hashicorp.com/edu/circle3&quot;] (close)&#45;&gt;[root] circle3_ddisk.puppy_linux (expand) -->
<g id="edge4" class="edge">
<title>[root] provider[&quot;hashicorp.com/edu/circle3&quot;] (close)&#45;&gt;[root] circle3_ddisk.puppy_linux (expand)</title>
<path fill="none" stroke="black" d="M264.72,-287.7C264.72,-279.98 264.72,-270.71 264.72,-262.11"/>
<polygon fill="black" stroke="black" points="268.22,-262.1 264.72,-252.1 261.22,-262.1 268.22,-262.1"/>
</g>
<!-- [root] root -->
<g id="node6" class="node">
<title>[root] root</title>
<ellipse fill="none" stroke="black" cx="264.72" cy="-378" rx="58.49" ry="18"/>
<text text-anchor="middle" x="264.72" y="-374.3" font-family="Times,serif" font-size="14.00">[root] root</text>
</g>
<!-- [root] root&#45;&gt;[root] provider[&quot;hashicorp.com/edu/circle3&quot;] (close) -->
<g id="edge5" class="edge">
<title>[root] root&#45;&gt;[root] provider[&quot;hashicorp.com/edu/circle3&quot;] (close)</title>
<path fill="none" stroke="black" d="M264.72,-359.7C264.72,-351.98 264.72,-342.71 264.72,-334.11"/>
<polygon fill="black" stroke="black" points="268.22,-334.1 264.72,-324.1 261.22,-334.1 268.22,-334.1"/>
</g>
</g>
</svg>
