<?xml version="1.0" encoding="UTF-8" standalone="no"?>
<!DOCTYPE svg PUBLIC "-//W3C//DTD SVG 1.1//EN"
 "http://www.w3.org/Graphics/SVG/1.1/DTD/svg11.dtd">
<!-- Generated by graphviz version 2.43.0 (0)
 -->
<!-- Title: %3 Pages: 1 -->
<svg width="408pt" height="404pt"
 viewBox="0.00 0.00 408.36 404.00" xmlns="http://www.w3.org/2000/svg" xmlns:xlink="http://www.w3.org/1999/xlink">
<g id="graph0" class="graph" transform="scale(1 1) rotate(0) translate(4 400)">
<title>%3</title>
<polygon fill="white" stroke="transparent" points="-4,4 -4,-400 404.36,-400 404.36,4 -4,4"/>
<!-- [root] circle3_port.openport8080 (expand) -->
<g id="node1" class="node">
<title>[root] circle3_port.openport8080 (expand)</title>
<polygon fill="none" stroke="black" points="303.18,-252 97.18,-252 97.18,-216 303.18,-216 303.18,-252"/>
<text text-anchor="middle" x="200.18" y="-230.3" font-family="Times,serif" font-size="14.00">circle3_port.openport8080</text>
</g>
<!-- [root] circle3_vm.from_template_tf (expand) -->
<g id="node2" class="node">
<title>[root] circle3_vm.from_template_tf (expand)</title>
<polygon fill="none" stroke="black" points="310.18,-180 90.18,-180 90.18,-144 310.18,-144 310.18,-180"/>
<text text-anchor="middle" x="200.18" y="-158.3" font-family="Times,serif" font-size="14.00">circle3_vm.from_template_tf</text>
</g>
<!-- [root] circle3_port.openport8080 (expand)&#45;&gt;[root] circle3_vm.from_template_tf (expand) -->
<g id="edge1" class="edge">
<title>[root] circle3_port.openport8080 (expand)&#45;&gt;[root] circle3_vm.from_template_tf (expand)</title>
<path fill="none" stroke="black" d="M200.18,-215.7C200.18,-207.98 200.18,-198.71 200.18,-190.11"/>
<polygon fill="black" stroke="black" points="203.68,-190.1 200.18,-180.1 196.68,-190.1 203.68,-190.1"/>
</g>
<!-- [root] data.circle3_template.basetemplate (expand) -->
<g id="node3" class="node">
<title>[root] data.circle3_template.basetemplate (expand)</title>
<polygon fill="none" stroke="black" points="336.18,-108 64.18,-108 64.18,-72 336.18,-72 336.18,-108"/>
<text text-anchor="middle" x="200.18" y="-86.3" font-family="Times,serif" font-size="14.00">data.circle3_template.basetemplate</text>
</g>
<!-- [root] circle3_vm.from_template_tf (expand)&#45;&gt;[root] data.circle3_template.basetemplate (expand) -->
<g id="edge2" class="edge">
<title>[root] circle3_vm.from_template_tf (expand)&#45;&gt;[root] data.circle3_template.basetemplate (expand)</title>
<path fill="none" stroke="black" d="M200.18,-143.7C200.18,-135.98 200.18,-126.71 200.18,-118.11"/>
<polygon fill="black" stroke="black" points="203.68,-118.1 200.18,-108.1 196.68,-118.1 203.68,-118.1"/>
</g>
<!-- [root] provider[&quot;bmeik/tf/circle3&quot;] -->
<g id="node4" class="node">
<title>[root] provider[&quot;bmeik/tf/circle3&quot;]</title>
<polygon fill="none" stroke="black" points="200.18,-36 4.62,-18 200.18,0 395.74,-18 200.18,-36"/>
<text text-anchor="middle" x="200.18" y="-14.3" font-family="Times,serif" font-size="14.00">provider[&quot;bmeik/tf/circle3&quot;]</text>
</g>
<!-- [root] data.circle3_template.basetemplate (expand)&#45;&gt;[root] provider[&quot;bmeik/tf/circle3&quot;] -->
<g id="edge3" class="edge">
<title>[root] data.circle3_template.basetemplate (expand)&#45;&gt;[root] provider[&quot;bmeik/tf/circle3&quot;]</title>
<path fill="none" stroke="black" d="M200.18,-71.7C200.18,-63.98 200.18,-54.71 200.18,-46.11"/>
<polygon fill="black" stroke="black" points="203.68,-46.1 200.18,-36.1 196.68,-46.1 203.68,-46.1"/>
</g>
<!-- [root] provider[&quot;bmeik/tf/circle3&quot;] (close) -->
<g id="node5" class="node">
<title>[root] provider[&quot;bmeik/tf/circle3&quot;] (close)</title>
<ellipse fill="none" stroke="black" cx="200.18" cy="-306" rx="200.36" ry="18"/>
<text text-anchor="middle" x="200.18" y="-302.3" font-family="Times,serif" font-size="14.00">[root] provider[&quot;bmeik/tf/circle3&quot;] (close)</text>
</g>
<!-- [root] provider[&quot;bmeik/tf/circle3&quot;] (close)&#45;&gt;[root] circle3_port.openport8080 (expand) -->
<g id="edge4" class="edge">
<title>[root] provider[&quot;bmeik/tf/circle3&quot;] (close)&#45;&gt;[root] circle3_port.openport8080 (expand)</title>
<path fill="none" stroke="black" d="M200.18,-287.7C200.18,-279.98 200.18,-270.71 200.18,-262.11"/>
<polygon fill="black" stroke="black" points="203.68,-262.1 200.18,-252.1 196.68,-262.1 203.68,-262.1"/>
</g>
<!-- [root] root -->
<g id="node6" class="node">
<title>[root] root</title>
<ellipse fill="none" stroke="black" cx="200.18" cy="-378" rx="58.49" ry="18"/>
<text text-anchor="middle" x="200.18" y="-374.3" font-family="Times,serif" font-size="14.00">[root] root</text>
</g>
<!-- [root] root&#45;&gt;[root] provider[&quot;bmeik/tf/circle3&quot;] (close) -->
<g id="edge5" class="edge">
<title>[root] root&#45;&gt;[root] provider[&quot;bmeik/tf/circle3&quot;] (close)</title>
<path fill="none" stroke="black" d="M200.18,-359.7C200.18,-351.98 200.18,-342.71 200.18,-334.11"/>
<polygon fill="black" stroke="black" points="203.68,-334.1 200.18,-324.1 196.68,-334.1 203.68,-334.1"/>
</g>
</g>
</svg>
