<?xml version="1.0" encoding="UTF-8" standalone="no"?>
<!DOCTYPE svg PUBLIC "-//W3C//DTD SVG 1.1//EN"
 "http://www.w3.org/Graphics/SVG/1.1/DTD/svg11.dtd">
<!-- Generated by graphviz version 2.43.0 (0)
 -->
<!-- Title: %3 Pages: 1 -->
<svg width="900pt" height="332pt"
 viewBox="0.00 0.00 900.00 332.00" xmlns="http://www.w3.org/2000/svg" xmlns:xlink="http://www.w3.org/1999/xlink">
<g id="graph0" class="graph" transform="scale(1 1) rotate(0) translate(4 328)">
<title>%3</title>
<polygon fill="white" stroke="transparent" points="-4,4 -4,-328 896,-328 896,4 -4,4"/>
<!-- [root] circle3_vm.basic (expand) -->
<g id="node1" class="node">
<title>[root] circle3_vm.basic (expand)</title>
<polygon fill="none" stroke="black" points="503,-180 369,-180 369,-144 503,-144 503,-180"/>
<text text-anchor="middle" x="436" y="-158.3" font-family="Times,serif" font-size="14.00">circle3_vm.basic</text>
</g>
<!-- [root] circle3_volume_download.ubuntu18 (expand) -->
<g id="node2" class="node">
<title>[root] circle3_volume_download.ubuntu18 (expand)</title>
<polygon fill="none" stroke="black" points="272,-108 0,-108 0,-72 272,-72 272,-108"/>
<text text-anchor="middle" x="136" y="-86.3" font-family="Times,serif" font-size="14.00">circle3_volume_download.ubuntu18</text>
</g>
<!-- [root] circle3_vm.basic (expand)&#45;&gt;[root] circle3_volume_download.ubuntu18 (expand) -->
<g id="edge1" class="edge">
<title>[root] circle3_vm.basic (expand)&#45;&gt;[root] circle3_volume_download.ubuntu18 (expand)</title>
<path fill="none" stroke="black" d="M368.67,-145.29C324.32,-134.94 265.94,-121.32 218.76,-110.31"/>
<polygon fill="black" stroke="black" points="219.41,-106.87 208.87,-108 217.81,-113.68 219.41,-106.87"/>
</g>
<!-- [root] data.circle3_lease_byname.labor_lease (expand) -->
<g id="node3" class="node">
<title>[root] data.circle3_lease_byname.labor_lease (expand)</title>
<polygon fill="none" stroke="black" points="582,-108 290,-108 290,-72 582,-72 582,-108"/>
<text text-anchor="middle" x="436" y="-86.3" font-family="Times,serif" font-size="14.00">data.circle3_lease_byname.labor_lease</text>
</g>
<!-- [root] circle3_vm.basic (expand)&#45;&gt;[root] data.circle3_lease_byname.labor_lease (expand) -->
<g id="edge2" class="edge">
<title>[root] circle3_vm.basic (expand)&#45;&gt;[root] data.circle3_lease_byname.labor_lease (expand)</title>
<path fill="none" stroke="black" d="M436,-143.7C436,-135.98 436,-126.71 436,-118.11"/>
<polygon fill="black" stroke="black" points="439.5,-118.1 436,-108.1 432.5,-118.1 439.5,-118.1"/>
</g>
<!-- [root] data.circle3_vlan_byname.default_vlan (expand) -->
<g id="node4" class="node">
<title>[root] data.circle3_vlan_byname.default_vlan (expand)</title>
<polygon fill="none" stroke="black" points="892,-108 600,-108 600,-72 892,-72 892,-108"/>
<text text-anchor="middle" x="746" y="-86.3" font-family="Times,serif" font-size="14.00">data.circle3_vlan_byname.default_vlan</text>
</g>
<!-- [root] circle3_vm.basic (expand)&#45;&gt;[root] data.circle3_vlan_byname.default_vlan (expand) -->
<g id="edge3" class="edge">
<title>[root] circle3_vm.basic (expand)&#45;&gt;[root] data.circle3_vlan_byname.default_vlan (expand)</title>
<path fill="none" stroke="black" d="M503.27,-145.81C549.51,-135.37 611.29,-121.42 660.95,-110.21"/>
<polygon fill="black" stroke="black" points="661.72,-113.62 670.71,-108 660.18,-106.79 661.72,-113.62"/>
</g>
<!-- [root] provider[&quot;hashicorp.com/edu/circle3&quot;] -->
<g id="node5" class="node">
<title>[root] provider[&quot;hashicorp.com/edu/circle3&quot;]</title>
<polygon fill="none" stroke="black" points="436,-36 171.07,-18 436,0 700.93,-18 436,-36"/>
<text text-anchor="middle" x="436" y="-14.3" font-family="Times,serif" font-size="14.00">provider[&quot;hashicorp.com/edu/circle3&quot;]</text>
</g>
<!-- [root] circle3_volume_download.ubuntu18 (expand)&#45;&gt;[root] provider[&quot;hashicorp.com/edu/circle3&quot;] -->
<g id="edge4" class="edge">
<title>[root] circle3_volume_download.ubuntu18 (expand)&#45;&gt;[root] provider[&quot;hashicorp.com/edu/circle3&quot;]</title>
<path fill="none" stroke="black" d="M209,-71.97C257.9,-60.56 321.78,-45.65 369.32,-34.56"/>
<polygon fill="black" stroke="black" points="370.26,-37.93 379.2,-32.25 368.67,-31.12 370.26,-37.93"/>
</g>
<!-- [root] data.circle3_lease_byname.labor_lease (expand)&#45;&gt;[root] provider[&quot;hashicorp.com/edu/circle3&quot;] -->
<g id="edge5" class="edge">
<title>[root] data.circle3_lease_byname.labor_lease (expand)&#45;&gt;[root] provider[&quot;hashicorp.com/edu/circle3&quot;]</title>
<path fill="none" stroke="black" d="M436,-71.7C436,-63.98 436,-54.71 436,-46.11"/>
<polygon fill="black" stroke="black" points="439.5,-46.1 436,-36.1 432.5,-46.1 439.5,-46.1"/>
</g>
<!-- [root] data.circle3_vlan_byname.default_vlan (expand)&#45;&gt;[root] provider[&quot;hashicorp.com/edu/circle3&quot;] -->
<g id="edge6" class="edge">
<title>[root] data.circle3_vlan_byname.default_vlan (expand)&#45;&gt;[root] provider[&quot;hashicorp.com/edu/circle3&quot;]</title>
<path fill="none" stroke="black" d="M670.56,-71.97C619.76,-60.49 553.31,-45.49 504.11,-34.38"/>
<polygon fill="black" stroke="black" points="504.73,-30.93 494.2,-32.14 503.18,-37.76 504.73,-30.93"/>
</g>
<!-- [root] provider[&quot;hashicorp.com/edu/circle3&quot;] (close) -->
<g id="node6" class="node">
<title>[root] provider[&quot;hashicorp.com/edu/circle3&quot;] (close)</title>
<ellipse fill="none" stroke="black" cx="436" cy="-234" rx="248.86" ry="18"/>
<text text-anchor="middle" x="436" y="-230.3" font-family="Times,serif" font-size="14.00">[root] provider[&quot;hashicorp.com/edu/circle3&quot;] (close)</text>
</g>
<!-- [root] provider[&quot;hashicorp.com/edu/circle3&quot;] (close)&#45;&gt;[root] circle3_vm.basic (expand) -->
<g id="edge7" class="edge">
<title>[root] provider[&quot;hashicorp.com/edu/circle3&quot;] (close)&#45;&gt;[root] circle3_vm.basic (expand)</title>
<path fill="none" stroke="black" d="M436,-215.7C436,-207.98 436,-198.71 436,-190.11"/>
<polygon fill="black" stroke="black" points="439.5,-190.1 436,-180.1 432.5,-190.1 439.5,-190.1"/>
</g>
<!-- [root] root -->
<g id="node7" class="node">
<title>[root] root</title>
<ellipse fill="none" stroke="black" cx="436" cy="-306" rx="58.49" ry="18"/>
<text text-anchor="middle" x="436" y="-302.3" font-family="Times,serif" font-size="14.00">[root] root</text>
</g>
<!-- [root] root&#45;&gt;[root] provider[&quot;hashicorp.com/edu/circle3&quot;] (close) -->
<g id="edge8" class="edge">
<title>[root] root&#45;&gt;[root] provider[&quot;hashicorp.com/edu/circle3&quot;] (close)</title>
<path fill="none" stroke="black" d="M436,-287.7C436,-279.98 436,-270.71 436,-262.11"/>
<polygon fill="black" stroke="black" points="439.5,-262.1 436,-252.1 432.5,-262.1 439.5,-262.1"/>
</g>
</g>
</svg>
