<?xml version="1.0" encoding="UTF-8" standalone="no"?>
<!DOCTYPE svg PUBLIC "-//W3C//DTD SVG 1.1//EN"
 "http://www.w3.org/Graphics/SVG/1.1/DTD/svg11.dtd">
<!-- Generated by graphviz version 2.43.0 (0)
 -->
<!-- Title: %3 Pages: 1 -->
<svg width="866pt" height="332pt"
 viewBox="0.00 0.00 866.03 332.00" xmlns="http://www.w3.org/2000/svg" xmlns:xlink="http://www.w3.org/1999/xlink">
<g id="graph0" class="graph" transform="scale(1 1) rotate(0) translate(4 328)">
<title>%3</title>
<polygon fill="white" stroke="transparent" points="-4,4 -4,-328 862.03,-328 862.03,4 -4,4"/>
<!-- [root] circle3_disk.ubuntu18 (expand) -->
<g id="node1" class="node">
<title>[root] circle3_disk.ubuntu18 (expand)</title>
<polygon fill="none" stroke="black" points="668.5,-108 494.5,-108 494.5,-72 668.5,-72 668.5,-108"/>
<text text-anchor="middle" x="581.5" y="-86.3" font-family="Times,serif" font-size="14.00">circle3_disk.ubuntu18</text>
</g>
<!-- [root] provider[&quot;bmeik/tf/circle3&quot;] -->
<g id="node5" class="node">
<title>[root] provider[&quot;bmeik/tf/circle3&quot;]</title>
<polygon fill="none" stroke="black" points="271.5,-36 75.94,-18 271.5,0 467.06,-18 271.5,-36"/>
<text text-anchor="middle" x="271.5" y="-14.3" font-family="Times,serif" font-size="14.00">provider[&quot;bmeik/tf/circle3&quot;]</text>
</g>
<!-- [root] circle3_disk.ubuntu18 (expand)&#45;&gt;[root] provider[&quot;bmeik/tf/circle3&quot;] -->
<g id="edge2" class="edge">
<title>[root] circle3_disk.ubuntu18 (expand)&#45;&gt;[root] provider[&quot;bmeik/tf/circle3&quot;]</title>
<path fill="none" stroke="black" d="M506.06,-71.97C453.75,-60.15 384.85,-44.59 335.27,-33.4"/>
<polygon fill="black" stroke="black" points="335.84,-29.94 325.32,-31.15 334.3,-36.77 335.84,-29.94"/>
</g>
<!-- [root] local.virtual_machines (expand) -->
<g id="node6" class="node">
<title>[root] local.virtual_machines (expand)</title>
<ellipse fill="none" stroke="black" cx="671.5" cy="-18" rx="186.57" ry="18"/>
<text text-anchor="middle" x="671.5" y="-14.3" font-family="Times,serif" font-size="14.00">[root] local.virtual_machines (expand)</text>
</g>
<!-- [root] circle3_disk.ubuntu18 (expand)&#45;&gt;[root] local.virtual_machines (expand) -->
<g id="edge1" class="edge">
<title>[root] circle3_disk.ubuntu18 (expand)&#45;&gt;[root] local.virtual_machines (expand)</title>
<path fill="none" stroke="black" d="M603.75,-71.7C615.08,-62.88 629.03,-52.03 641.32,-42.47"/>
<polygon fill="black" stroke="black" points="643.76,-45.01 649.51,-36.1 639.47,-39.48 643.76,-45.01"/>
</g>
<!-- [root] circle3_vm.basic (expand) -->
<g id="node2" class="node">
<title>[root] circle3_vm.basic (expand)</title>
<polygon fill="none" stroke="black" points="428.5,-180 294.5,-180 294.5,-144 428.5,-144 428.5,-180"/>
<text text-anchor="middle" x="361.5" y="-158.3" font-family="Times,serif" font-size="14.00">circle3_vm.basic</text>
</g>
<!-- [root] circle3_vm.basic (expand)&#45;&gt;[root] circle3_disk.ubuntu18 (expand) -->
<g id="edge3" class="edge">
<title>[root] circle3_vm.basic (expand)&#45;&gt;[root] circle3_disk.ubuntu18 (expand)</title>
<path fill="none" stroke="black" d="M415.04,-143.97C446.04,-134.1 485.26,-121.62 517.84,-111.25"/>
<polygon fill="black" stroke="black" points="519.26,-114.48 527.72,-108.11 517.13,-107.81 519.26,-114.48"/>
</g>
<!-- [root] data.circle3_lease.labor_lease (expand) -->
<g id="node3" class="node">
<title>[root] data.circle3_lease.labor_lease (expand)</title>
<polygon fill="none" stroke="black" points="229,-108 0,-108 0,-72 229,-72 229,-108"/>
<text text-anchor="middle" x="114.5" y="-86.3" font-family="Times,serif" font-size="14.00">data.circle3_lease.labor_lease</text>
</g>
<!-- [root] circle3_vm.basic (expand)&#45;&gt;[root] data.circle3_lease.labor_lease (expand) -->
<g id="edge4" class="edge">
<title>[root] circle3_vm.basic (expand)&#45;&gt;[root] data.circle3_lease.labor_lease (expand)</title>
<path fill="none" stroke="black" d="M301.39,-143.97C266.13,-133.97 221.41,-121.3 184.56,-110.85"/>
<polygon fill="black" stroke="black" points="185.45,-107.47 174.88,-108.11 183.54,-114.2 185.45,-107.47"/>
</g>
<!-- [root] data.circle3_vlan.default_vlan (expand) -->
<g id="node4" class="node">
<title>[root] data.circle3_vlan.default_vlan (expand)</title>
<polygon fill="none" stroke="black" points="476,-108 247,-108 247,-72 476,-72 476,-108"/>
<text text-anchor="middle" x="361.5" y="-86.3" font-family="Times,serif" font-size="14.00">data.circle3_vlan.default_vlan</text>
</g>
<!-- [root] circle3_vm.basic (expand)&#45;&gt;[root] data.circle3_vlan.default_vlan (expand) -->
<g id="edge5" class="edge">
<title>[root] circle3_vm.basic (expand)&#45;&gt;[root] data.circle3_vlan.default_vlan (expand)</title>
<path fill="none" stroke="black" d="M361.5,-143.7C361.5,-135.98 361.5,-126.71 361.5,-118.11"/>
<polygon fill="black" stroke="black" points="365,-118.1 361.5,-108.1 358,-118.1 365,-118.1"/>
</g>
<!-- [root] data.circle3_lease.labor_lease (expand)&#45;&gt;[root] provider[&quot;bmeik/tf/circle3&quot;] -->
<g id="edge6" class="edge">
<title>[root] data.circle3_lease.labor_lease (expand)&#45;&gt;[root] provider[&quot;bmeik/tf/circle3&quot;]</title>
<path fill="none" stroke="black" d="M152.91,-71.88C176.47,-61.37 206.62,-47.93 230.62,-37.23"/>
<polygon fill="black" stroke="black" points="232.12,-40.39 239.82,-33.12 229.27,-34 232.12,-40.39"/>
</g>
<!-- [root] data.circle3_vlan.default_vlan (expand)&#45;&gt;[root] provider[&quot;bmeik/tf/circle3&quot;] -->
<g id="edge7" class="edge">
<title>[root] data.circle3_vlan.default_vlan (expand)&#45;&gt;[root] provider[&quot;bmeik/tf/circle3&quot;]</title>
<path fill="none" stroke="black" d="M339.25,-71.7C327.13,-62.26 312.01,-50.51 299.13,-40.49"/>
<polygon fill="black" stroke="black" points="301.09,-37.58 291.05,-34.2 296.79,-43.1 301.09,-37.58"/>
</g>
<!-- [root] provider[&quot;bmeik/tf/circle3&quot;] (close) -->
<g id="node7" class="node">
<title>[root] provider[&quot;bmeik/tf/circle3&quot;] (close)</title>
<ellipse fill="none" stroke="black" cx="361.5" cy="-234" rx="200.36" ry="18"/>
<text text-anchor="middle" x="361.5" y="-230.3" font-family="Times,serif" font-size="14.00">[root] provider[&quot;bmeik/tf/circle3&quot;] (close)</text>
</g>
<!-- [root] provider[&quot;bmeik/tf/circle3&quot;] (close)&#45;&gt;[root] circle3_vm.basic (expand) -->
<g id="edge8" class="edge">
<title>[root] provider[&quot;bmeik/tf/circle3&quot;] (close)&#45;&gt;[root] circle3_vm.basic (expand)</title>
<path fill="none" stroke="black" d="M361.5,-215.7C361.5,-207.98 361.5,-198.71 361.5,-190.11"/>
<polygon fill="black" stroke="black" points="365,-190.1 361.5,-180.1 358,-190.1 365,-190.1"/>
</g>
<!-- [root] root -->
<g id="node8" class="node">
<title>[root] root</title>
<ellipse fill="none" stroke="black" cx="361.5" cy="-306" rx="58.49" ry="18"/>
<text text-anchor="middle" x="361.5" y="-302.3" font-family="Times,serif" font-size="14.00">[root] root</text>
</g>
<!-- [root] root&#45;&gt;[root] provider[&quot;bmeik/tf/circle3&quot;] (close) -->
<g id="edge9" class="edge">
<title>[root] root&#45;&gt;[root] provider[&quot;bmeik/tf/circle3&quot;] (close)</title>
<path fill="none" stroke="black" d="M361.5,-287.7C361.5,-279.98 361.5,-270.71 361.5,-262.11"/>
<polygon fill="black" stroke="black" points="365,-262.1 361.5,-252.1 358,-262.1 365,-262.1"/>
</g>
</g>
</svg>
