<?xml version="1.0" encoding="UTF-8" standalone="no"?>
<!DOCTYPE svg PUBLIC "-//W3C//DTD SVG 1.1//EN"
 "http://www.w3.org/Graphics/SVG/1.1/DTD/svg11.dtd">
<!-- Generated by graphviz version 2.43.0 (0)
 -->
<!-- Title: %3 Pages: 1 -->
<svg width="712pt" height="332pt"
 viewBox="0.00 0.00 711.52 332.00" xmlns="http://www.w3.org/2000/svg" xmlns:xlink="http://www.w3.org/1999/xlink">
<g id="graph0" class="graph" transform="scale(1 1) rotate(0) translate(4 328)">
<title>%3</title>
<polygon fill="white" stroke="transparent" points="-4,4 -4,-328 707.52,-328 707.52,4 -4,4"/>
<!-- [root] circle3_vm.from_template_tf (expand) -->
<g id="node1" class="node">
<title>[root] circle3_vm.from_template_tf (expand)</title>
<polygon fill="none" stroke="black" points="432.34,-180 212.34,-180 212.34,-144 432.34,-144 432.34,-180"/>
<text text-anchor="middle" x="322.34" y="-158.3" font-family="Times,serif" font-size="14.00">circle3_vm.from_template_tf</text>
</g>
<!-- [root] data.circle3_template.basetemplate (expand) -->
<g id="node2" class="node">
<title>[root] data.circle3_template.basetemplate (expand)</title>
<polygon fill="none" stroke="black" points="458.34,-108 186.34,-108 186.34,-72 458.34,-72 458.34,-108"/>
<text text-anchor="middle" x="322.34" y="-86.3" font-family="Times,serif" font-size="14.00">data.circle3_template.basetemplate</text>
</g>
<!-- [root] circle3_vm.from_template_tf (expand)&#45;&gt;[root] data.circle3_template.basetemplate (expand) -->
<g id="edge1" class="edge">
<title>[root] circle3_vm.from_template_tf (expand)&#45;&gt;[root] data.circle3_template.basetemplate (expand)</title>
<path fill="none" stroke="black" d="M322.34,-143.7C322.34,-135.98 322.34,-126.71 322.34,-118.11"/>
<polygon fill="black" stroke="black" points="325.84,-118.1 322.34,-108.1 318.84,-118.1 325.84,-118.1"/>
</g>
<!-- [root] provider[&quot;bmeik/tf/circle3&quot;] -->
<g id="node3" class="node">
<title>[root] provider[&quot;bmeik/tf/circle3&quot;]</title>
<polygon fill="none" stroke="black" points="322.34,-36 126.78,-18 322.34,0 517.9,-18 322.34,-36"/>
<text text-anchor="middle" x="322.34" y="-14.3" font-family="Times,serif" font-size="14.00">provider[&quot;bmeik/tf/circle3&quot;]</text>
</g>
<!-- [root] data.circle3_template.basetemplate (expand)&#45;&gt;[root] provider[&quot;bmeik/tf/circle3&quot;] -->
<g id="edge2" class="edge">
<title>[root] data.circle3_template.basetemplate (expand)&#45;&gt;[root] provider[&quot;bmeik/tf/circle3&quot;]</title>
<path fill="none" stroke="black" d="M322.34,-71.7C322.34,-63.98 322.34,-54.71 322.34,-46.11"/>
<polygon fill="black" stroke="black" points="325.84,-46.1 322.34,-36.1 318.84,-46.1 325.84,-46.1"/>
</g>
<!-- [root] output.vm&#45;ip (expand) -->
<g id="node4" class="node">
<title>[root] output.vm&#45;ip (expand)</title>
<ellipse fill="none" stroke="black" cx="142.34" cy="-234" rx="142.17" ry="18"/>
<text text-anchor="middle" x="142.34" y="-230.3" font-family="Times,serif" font-size="14.00">[root] output.vm&#45;ip (expand)</text>
</g>
<!-- [root] output.vm&#45;ip (expand)&#45;&gt;[root] circle3_vm.from_template_tf (expand) -->
<g id="edge3" class="edge">
<title>[root] output.vm&#45;ip (expand)&#45;&gt;[root] circle3_vm.from_template_tf (expand)</title>
<path fill="none" stroke="black" d="M184.09,-216.76C209.45,-206.9 242.07,-194.22 269.25,-183.64"/>
<polygon fill="black" stroke="black" points="270.57,-186.89 278.62,-180 268.03,-180.36 270.57,-186.89"/>
</g>
<!-- [root] provider[&quot;bmeik/tf/circle3&quot;] (close) -->
<g id="node5" class="node">
<title>[root] provider[&quot;bmeik/tf/circle3&quot;] (close)</title>
<ellipse fill="none" stroke="black" cx="503.34" cy="-234" rx="200.36" ry="18"/>
<text text-anchor="middle" x="503.34" y="-230.3" font-family="Times,serif" font-size="14.00">[root] provider[&quot;bmeik/tf/circle3&quot;] (close)</text>
</g>
<!-- [root] provider[&quot;bmeik/tf/circle3&quot;] (close)&#45;&gt;[root] circle3_vm.from_template_tf (expand) -->
<g id="edge4" class="edge">
<title>[root] provider[&quot;bmeik/tf/circle3&quot;] (close)&#45;&gt;[root] circle3_vm.from_template_tf (expand)</title>
<path fill="none" stroke="black" d="M460.44,-216.41C435.21,-206.65 403.08,-194.23 376.16,-183.81"/>
<polygon fill="black" stroke="black" points="377.09,-180.42 366.5,-180.08 374.56,-186.95 377.09,-180.42"/>
</g>
<!-- [root] root -->
<g id="node6" class="node">
<title>[root] root</title>
<ellipse fill="none" stroke="black" cx="322.34" cy="-306" rx="58.49" ry="18"/>
<text text-anchor="middle" x="322.34" y="-302.3" font-family="Times,serif" font-size="14.00">[root] root</text>
</g>
<!-- [root] root&#45;&gt;[root] output.vm&#45;ip (expand) -->
<g id="edge5" class="edge">
<title>[root] root&#45;&gt;[root] output.vm&#45;ip (expand)</title>
<path fill="none" stroke="black" d="M287.63,-291.5C260.99,-281.14 223.8,-266.68 193.71,-254.98"/>
<polygon fill="black" stroke="black" points="194.8,-251.65 184.21,-251.28 192.26,-258.17 194.8,-251.65"/>
</g>
<!-- [root] root&#45;&gt;[root] provider[&quot;bmeik/tf/circle3&quot;] (close) -->
<g id="edge6" class="edge">
<title>[root] root&#45;&gt;[root] provider[&quot;bmeik/tf/circle3&quot;] (close)</title>
<path fill="none" stroke="black" d="M357.24,-291.5C383.75,-281.25 420.65,-266.98 450.74,-255.34"/>
<polygon fill="black" stroke="black" points="452.18,-258.54 460.24,-251.67 449.65,-252.01 452.18,-258.54"/>
</g>
</g>
</svg>
