<?xml version="1.0" encoding="UTF-8" standalone="no"?>
<!DOCTYPE svg PUBLIC "-//W3C//DTD SVG 1.1//EN"
 "http://www.w3.org/Graphics/SVG/1.1/DTD/svg11.dtd">
<!-- Generated by graphviz version 2.43.0 (0)
 -->
<!-- Title: %3 Pages: 1 -->
<svg width="1103pt" height="332pt"
 viewBox="0.00 0.00 1102.60 332.00" xmlns="http://www.w3.org/2000/svg" xmlns:xlink="http://www.w3.org/1999/xlink">
<g id="graph0" class="graph" transform="scale(1 1) rotate(0) translate(4 328)">
<title>%3</title>
<polygon fill="white" stroke="transparent" points="-4,4 -4,-328 1098.6,-328 1098.6,4 -4,4"/>
<!-- [root] circle3_disk.ubuntu18 (expand) -->
<g id="node1" class="node">
<title>[root] circle3_disk.ubuntu18 (expand)</title>
<polygon fill="none" stroke="black" points="221.18,-108 47.18,-108 47.18,-72 221.18,-72 221.18,-108"/>
<text text-anchor="middle" x="134.18" y="-86.3" font-family="Times,serif" font-size="14.00">circle3_disk.ubuntu18</text>
</g>
<!-- [root] provider[&quot;bmeik/tf/circle3&quot;] -->
<g id="node7" class="node">
<title>[root] provider[&quot;bmeik/tf/circle3&quot;]</title>
<polygon fill="none" stroke="black" points="354.18,-36 158.62,-18 354.18,0 549.74,-18 354.18,-36"/>
<text text-anchor="middle" x="354.18" y="-14.3" font-family="Times,serif" font-size="14.00">provider[&quot;bmeik/tf/circle3&quot;]</text>
</g>
<!-- [root] circle3_disk.ubuntu18 (expand)&#45;&gt;[root] provider[&quot;bmeik/tf/circle3&quot;] -->
<g id="edge1" class="edge">
<title>[root] circle3_disk.ubuntu18 (expand)&#45;&gt;[root] provider[&quot;bmeik/tf/circle3&quot;]</title>
<path fill="none" stroke="black" d="M187.72,-71.97C222.68,-60.84 268.08,-46.4 302.63,-35.4"/>
<polygon fill="black" stroke="black" points="304.06,-38.62 312.53,-32.25 301.94,-31.95 304.06,-38.62"/>
</g>
<!-- [root] circle3_disk.ubuntu18_pulumi (expand) -->
<g id="node2" class="node">
<title>[root] circle3_disk.ubuntu18_pulumi (expand)</title>
<polygon fill="none" stroke="black" points="964.18,-108 734.18,-108 734.18,-72 964.18,-72 964.18,-108"/>
<text text-anchor="middle" x="849.18" y="-86.3" font-family="Times,serif" font-size="14.00">circle3_disk.ubuntu18_pulumi</text>
</g>
<!-- [root] provider[&quot;bmeik/tf/circle3&quot;].pulumi -->
<g id="node8" class="node">
<title>[root] provider[&quot;bmeik/tf/circle3&quot;].pulumi</title>
<polygon fill="none" stroke="black" points="849.18,-36 603.85,-18 849.18,0 1094.51,-18 849.18,-36"/>
<text text-anchor="middle" x="849.18" y="-14.3" font-family="Times,serif" font-size="14.00">provider[&quot;bmeik/tf/circle3&quot;].pulumi</text>
</g>
<!-- [root] circle3_disk.ubuntu18_pulumi (expand)&#45;&gt;[root] provider[&quot;bmeik/tf/circle3&quot;].pulumi -->
<g id="edge2" class="edge">
<title>[root] circle3_disk.ubuntu18_pulumi (expand)&#45;&gt;[root] provider[&quot;bmeik/tf/circle3&quot;].pulumi</title>
<path fill="none" stroke="black" d="M849.18,-71.7C849.18,-63.98 849.18,-54.71 849.18,-46.11"/>
<polygon fill="black" stroke="black" points="852.68,-46.1 849.18,-36.1 845.68,-46.1 852.68,-46.1"/>
</g>
<!-- [root] circle3_vm.basic (expand) -->
<g id="node3" class="node">
<title>[root] circle3_vm.basic (expand)</title>
<polygon fill="none" stroke="black" points="370.18,-180 236.18,-180 236.18,-144 370.18,-144 370.18,-180"/>
<text text-anchor="middle" x="303.18" y="-158.3" font-family="Times,serif" font-size="14.00">circle3_vm.basic</text>
</g>
<!-- [root] circle3_vm.basic (expand)&#45;&gt;[root] circle3_disk.ubuntu18 (expand) -->
<g id="edge3" class="edge">
<title>[root] circle3_vm.basic (expand)&#45;&gt;[root] circle3_disk.ubuntu18 (expand)</title>
<path fill="none" stroke="black" d="M261.84,-143.88C238.63,-134.26 209.49,-122.19 184.91,-112.01"/>
<polygon fill="black" stroke="black" points="185.97,-108.66 175.39,-108.07 183.29,-115.13 185.97,-108.66"/>
</g>
<!-- [root] data.circle3_lease.labor_lease (expand) -->
<g id="node5" class="node">
<title>[root] data.circle3_lease.labor_lease (expand)</title>
<polygon fill="none" stroke="black" points="468.68,-108 239.68,-108 239.68,-72 468.68,-72 468.68,-108"/>
<text text-anchor="middle" x="354.18" y="-86.3" font-family="Times,serif" font-size="14.00">data.circle3_lease.labor_lease</text>
</g>
<!-- [root] circle3_vm.basic (expand)&#45;&gt;[root] data.circle3_lease.labor_lease (expand) -->
<g id="edge4" class="edge">
<title>[root] circle3_vm.basic (expand)&#45;&gt;[root] data.circle3_lease.labor_lease (expand)</title>
<path fill="none" stroke="black" d="M315.79,-143.7C321.78,-135.47 329.06,-125.48 335.66,-116.42"/>
<polygon fill="black" stroke="black" points="338.66,-118.25 341.72,-108.1 333,-114.13 338.66,-118.25"/>
</g>
<!-- [root] data.circle3_vlan.default_vlan (expand) -->
<g id="node6" class="node">
<title>[root] data.circle3_vlan.default_vlan (expand)</title>
<polygon fill="none" stroke="black" points="715.68,-108 486.68,-108 486.68,-72 715.68,-72 715.68,-108"/>
<text text-anchor="middle" x="601.18" y="-86.3" font-family="Times,serif" font-size="14.00">data.circle3_vlan.default_vlan</text>
</g>
<!-- [root] circle3_vm.basic (expand)&#45;&gt;[root] data.circle3_vlan.default_vlan (expand) -->
<g id="edge5" class="edge">
<title>[root] circle3_vm.basic (expand)&#45;&gt;[root] data.circle3_vlan.default_vlan (expand)</title>
<path fill="none" stroke="black" d="M370.43,-145.2C414.42,-134.87 472.19,-121.3 518.91,-110.32"/>
<polygon fill="black" stroke="black" points="519.77,-113.72 528.71,-108.02 518.17,-106.9 519.77,-113.72"/>
</g>
<!-- [root] circle3_vm.basic_pulumi (expand) -->
<g id="node4" class="node">
<title>[root] circle3_vm.basic_pulumi (expand)</title>
<polygon fill="none" stroke="black" points="722.68,-180 531.68,-180 531.68,-144 722.68,-144 722.68,-180"/>
<text text-anchor="middle" x="627.18" y="-158.3" font-family="Times,serif" font-size="14.00">circle3_vm.basic_pulumi</text>
</g>
<!-- [root] circle3_vm.basic_pulumi (expand)&#45;&gt;[root] circle3_disk.ubuntu18_pulumi (expand) -->
<g id="edge6" class="edge">
<title>[root] circle3_vm.basic_pulumi (expand)&#45;&gt;[root] circle3_disk.ubuntu18_pulumi (expand)</title>
<path fill="none" stroke="black" d="M681.21,-143.97C712.63,-134.06 752.41,-121.51 785.37,-111.12"/>
<polygon fill="black" stroke="black" points="786.43,-114.46 794.92,-108.11 784.33,-107.78 786.43,-114.46"/>
</g>
<!-- [root] circle3_vm.basic_pulumi (expand)&#45;&gt;[root] data.circle3_lease.labor_lease (expand) -->
<g id="edge7" class="edge">
<title>[root] circle3_vm.basic_pulumi (expand)&#45;&gt;[root] data.circle3_lease.labor_lease (expand)</title>
<path fill="none" stroke="black" d="M560.75,-143.97C521.53,-133.91 471.71,-121.14 430.83,-110.65"/>
<polygon fill="black" stroke="black" points="431.47,-107.2 420.91,-108.11 429.73,-113.98 431.47,-107.2"/>
</g>
<!-- [root] circle3_vm.basic_pulumi (expand)&#45;&gt;[root] data.circle3_vlan.default_vlan (expand) -->
<g id="edge8" class="edge">
<title>[root] circle3_vm.basic_pulumi (expand)&#45;&gt;[root] data.circle3_vlan.default_vlan (expand)</title>
<path fill="none" stroke="black" d="M620.76,-143.7C617.83,-135.81 614.3,-126.3 611.04,-117.55"/>
<polygon fill="black" stroke="black" points="614.3,-116.26 607.54,-108.1 607.74,-118.7 614.3,-116.26"/>
</g>
<!-- [root] data.circle3_lease.labor_lease (expand)&#45;&gt;[root] provider[&quot;bmeik/tf/circle3&quot;] -->
<g id="edge9" class="edge">
<title>[root] data.circle3_lease.labor_lease (expand)&#45;&gt;[root] provider[&quot;bmeik/tf/circle3&quot;]</title>
<path fill="none" stroke="black" d="M354.18,-71.7C354.18,-63.98 354.18,-54.71 354.18,-46.11"/>
<polygon fill="black" stroke="black" points="357.68,-46.1 354.18,-36.1 350.68,-46.1 357.68,-46.1"/>
</g>
<!-- [root] data.circle3_vlan.default_vlan (expand)&#45;&gt;[root] provider[&quot;bmeik/tf/circle3&quot;] -->
<g id="edge10" class="edge">
<title>[root] data.circle3_vlan.default_vlan (expand)&#45;&gt;[root] provider[&quot;bmeik/tf/circle3&quot;]</title>
<path fill="none" stroke="black" d="M541.08,-71.97C500.92,-60.59 448.51,-45.73 409.41,-34.65"/>
<polygon fill="black" stroke="black" points="410.35,-31.28 399.77,-31.92 408.44,-38.01 410.35,-31.28"/>
</g>
<!-- [root] provider[&quot;bmeik/tf/circle3&quot;] (close) -->
<g id="node9" class="node">
<title>[root] provider[&quot;bmeik/tf/circle3&quot;] (close)</title>
<ellipse fill="none" stroke="black" cx="200.18" cy="-234" rx="200.36" ry="18"/>
<text text-anchor="middle" x="200.18" y="-230.3" font-family="Times,serif" font-size="14.00">[root] provider[&quot;bmeik/tf/circle3&quot;] (close)</text>
</g>
<!-- [root] provider[&quot;bmeik/tf/circle3&quot;] (close)&#45;&gt;[root] circle3_vm.basic (expand) -->
<g id="edge11" class="edge">
<title>[root] provider[&quot;bmeik/tf/circle3&quot;] (close)&#45;&gt;[root] circle3_vm.basic (expand)</title>
<path fill="none" stroke="black" d="M225.12,-216.05C238.43,-207.01 255,-195.74 269.45,-185.93"/>
<polygon fill="black" stroke="black" points="271.82,-188.55 278.12,-180.03 267.88,-182.76 271.82,-188.55"/>
</g>
<!-- [root] provider[&quot;bmeik/tf/circle3&quot;].pulumi (close) -->
<g id="node10" class="node">
<title>[root] provider[&quot;bmeik/tf/circle3&quot;].pulumi (close)</title>
<ellipse fill="none" stroke="black" cx="653.18" cy="-234" rx="235.06" ry="18"/>
<text text-anchor="middle" x="653.18" y="-230.3" font-family="Times,serif" font-size="14.00">[root] provider[&quot;bmeik/tf/circle3&quot;].pulumi (close)</text>
</g>
<!-- [root] provider[&quot;bmeik/tf/circle3&quot;].pulumi (close)&#45;&gt;[root] circle3_vm.basic_pulumi (expand) -->
<g id="edge12" class="edge">
<title>[root] provider[&quot;bmeik/tf/circle3&quot;].pulumi (close)&#45;&gt;[root] circle3_vm.basic_pulumi (expand)</title>
<path fill="none" stroke="black" d="M646.76,-215.7C643.83,-207.81 640.3,-198.3 637.04,-189.55"/>
<polygon fill="black" stroke="black" points="640.3,-188.26 633.54,-180.1 633.74,-190.7 640.3,-188.26"/>
</g>
<!-- [root] root -->
<g id="node11" class="node">
<title>[root] root</title>
<ellipse fill="none" stroke="black" cx="426.18" cy="-306" rx="58.49" ry="18"/>
<text text-anchor="middle" x="426.18" y="-302.3" font-family="Times,serif" font-size="14.00">[root] root</text>
</g>
<!-- [root] root&#45;&gt;[root] provider[&quot;bmeik/tf/circle3&quot;] (close) -->
<g id="edge13" class="edge">
<title>[root] root&#45;&gt;[root] provider[&quot;bmeik/tf/circle3&quot;] (close)</title>
<path fill="none" stroke="black" d="M386.56,-292.73C352.41,-282.15 302.51,-266.69 262.93,-254.44"/>
<polygon fill="black" stroke="black" points="263.96,-251.09 253.37,-251.47 261.88,-257.78 263.96,-251.09"/>
</g>
<!-- [root] root&#45;&gt;[root] provider[&quot;bmeik/tf/circle3&quot;].pulumi (close) -->
<g id="edge14" class="edge">
<title>[root] root&#45;&gt;[root] provider[&quot;bmeik/tf/circle3&quot;].pulumi (close)</title>
<path fill="none" stroke="black" d="M465.98,-292.73C500.17,-282.19 550.06,-266.8 589.75,-254.56"/>
<polygon fill="black" stroke="black" points="590.82,-257.89 599.34,-251.6 588.75,-251.21 590.82,-257.89"/>
</g>
</g>
</svg>
